<mxfile host="app.diagrams.net" modified="2024-04-24T09:24:36.119Z" agent="Mozilla/5.0 (Windows NT 10.0; Win64; x64) AppleWebKit/537.36 (KHTML, like Gecko) Chrome/124.0.0.0 Safari/537.36" etag="xNFd5XqsSOI-jk2BrS2h" version="24.2.8" type="device">
  <diagram name="Page-1" id="D3AJLYzivXTIRAKntFfV">
    <mxGraphModel dx="1221" dy="652" grid="1" gridSize="10" guides="1" tooltips="1" connect="1" arrows="1" fold="1" page="1" pageScale="1" pageWidth="850" pageHeight="1100" math="0" shadow="0">
      <root>
        <mxCell id="0" />
        <mxCell id="1" parent="0" />
        <mxCell id="si_8iyR9S47Exdu5bwTo-1" value="" style="ellipse;html=1;shape=startState;fillColor=#000000;strokeColor=#ff0000;" parent="1" vertex="1">
          <mxGeometry x="130" y="80" width="30" height="30" as="geometry" />
        </mxCell>
        <mxCell id="si_8iyR9S47Exdu5bwTo-2" value="" style="edgeStyle=orthogonalEdgeStyle;html=1;verticalAlign=bottom;endArrow=open;endSize=8;strokeColor=#ff0000;rounded=0;" parent="1" source="si_8iyR9S47Exdu5bwTo-1" edge="1">
          <mxGeometry relative="1" as="geometry">
            <mxPoint x="145" y="170" as="targetPoint" />
          </mxGeometry>
        </mxCell>
        <mxCell id="si_8iyR9S47Exdu5bwTo-12" value="" style="edgeStyle=orthogonalEdgeStyle;rounded=0;orthogonalLoop=1;jettySize=auto;html=1;" parent="1" source="si_8iyR9S47Exdu5bwTo-3" target="si_8iyR9S47Exdu5bwTo-11" edge="1">
          <mxGeometry relative="1" as="geometry" />
        </mxCell>
        <mxCell id="si_8iyR9S47Exdu5bwTo-3" value="Pharmacist accesses the inventory" style="html=1;whiteSpace=wrap;" parent="1" vertex="1">
          <mxGeometry x="90" y="170" width="110" height="50" as="geometry" />
        </mxCell>
        <mxCell id="si_8iyR9S47Exdu5bwTo-16" value="" style="edgeStyle=orthogonalEdgeStyle;rounded=0;orthogonalLoop=1;jettySize=auto;html=1;" parent="1" source="si_8iyR9S47Exdu5bwTo-11" target="si_8iyR9S47Exdu5bwTo-13" edge="1">
          <mxGeometry relative="1" as="geometry" />
        </mxCell>
        <mxCell id="si_8iyR9S47Exdu5bwTo-11" value="Check and/or update inventory" style="html=1;whiteSpace=wrap;" parent="1" vertex="1">
          <mxGeometry x="90" y="280" width="110" height="50" as="geometry" />
        </mxCell>
        <mxCell id="3OiZJoym25PgtwgiKQW--2" value="" style="edgeStyle=orthogonalEdgeStyle;rounded=0;orthogonalLoop=1;jettySize=auto;html=1;" edge="1" parent="1" source="si_8iyR9S47Exdu5bwTo-13" target="3OiZJoym25PgtwgiKQW--1">
          <mxGeometry relative="1" as="geometry" />
        </mxCell>
        <mxCell id="3OiZJoym25PgtwgiKQW--5" value="Normal supply of items" style="edgeLabel;html=1;align=center;verticalAlign=middle;resizable=0;points=[];" vertex="1" connectable="0" parent="3OiZJoym25PgtwgiKQW--2">
          <mxGeometry x="-0.5394" y="3" relative="1" as="geometry">
            <mxPoint as="offset" />
          </mxGeometry>
        </mxCell>
        <mxCell id="si_8iyR9S47Exdu5bwTo-13" value="" style="rhombus;whiteSpace=wrap;html=1;fontColor=#000000;fillColor=#ffffc0;strokeColor=#ff0000;" parent="1" vertex="1">
          <mxGeometry x="105" y="370" width="80" height="40" as="geometry" />
        </mxCell>
        <mxCell id="si_8iyR9S47Exdu5bwTo-14" value="[low supply of item/s]" style="edgeStyle=orthogonalEdgeStyle;html=1;align=left;verticalAlign=bottom;endArrow=open;endSize=8;strokeColor=#ff0000;rounded=0;" parent="1" source="si_8iyR9S47Exdu5bwTo-13" edge="1">
          <mxGeometry x="-1" relative="1" as="geometry">
            <mxPoint x="280" y="390" as="targetPoint" />
          </mxGeometry>
        </mxCell>
        <mxCell id="3OiZJoym25PgtwgiKQW--3" style="edgeStyle=orthogonalEdgeStyle;rounded=0;orthogonalLoop=1;jettySize=auto;html=1;entryX=1;entryY=0.5;entryDx=0;entryDy=0;" edge="1" parent="1" source="si_8iyR9S47Exdu5bwTo-17" target="3OiZJoym25PgtwgiKQW--1">
          <mxGeometry relative="1" as="geometry">
            <mxPoint x="335" y="490" as="targetPoint" />
            <Array as="points">
              <mxPoint x="310" y="495" />
            </Array>
          </mxGeometry>
        </mxCell>
        <mxCell id="si_8iyR9S47Exdu5bwTo-17" value="Pharmacist notified,ordering prioritized to restock" style="html=1;whiteSpace=wrap;" parent="1" vertex="1">
          <mxGeometry x="280" y="360" width="110" height="50" as="geometry" />
        </mxCell>
        <mxCell id="si_8iyR9S47Exdu5bwTo-18" value="" style="ellipse;html=1;shape=endState;fillColor=#000000;strokeColor=#ff0000;" parent="1" vertex="1">
          <mxGeometry x="130" y="560" width="30" height="30" as="geometry" />
        </mxCell>
        <mxCell id="si_8iyR9S47Exdu5bwTo-19" style="edgeStyle=orthogonalEdgeStyle;rounded=0;orthogonalLoop=1;jettySize=auto;html=1;exitX=0.5;exitY=1;exitDx=0;exitDy=0;entryX=0;entryY=1;entryDx=0;entryDy=0;" parent="1" source="si_8iyR9S47Exdu5bwTo-18" target="si_8iyR9S47Exdu5bwTo-18" edge="1">
          <mxGeometry relative="1" as="geometry" />
        </mxCell>
        <mxCell id="3OiZJoym25PgtwgiKQW--4" value="" style="edgeStyle=orthogonalEdgeStyle;rounded=0;orthogonalLoop=1;jettySize=auto;html=1;" edge="1" parent="1" source="3OiZJoym25PgtwgiKQW--1" target="si_8iyR9S47Exdu5bwTo-18">
          <mxGeometry relative="1" as="geometry" />
        </mxCell>
        <mxCell id="3OiZJoym25PgtwgiKQW--1" value="System notifies the pharmacist that the inventory was updated" style="html=1;whiteSpace=wrap;" vertex="1" parent="1">
          <mxGeometry x="80" y="460" width="120" height="60" as="geometry" />
        </mxCell>
      </root>
    </mxGraphModel>
  </diagram>
</mxfile>
